Coordinates
version=1
nRows=13
nColumns=36
inDegrees=yes

Units are S.I. units (second, meters, Newtons, ...)
If the header above contains a line with 'inDegrees', this indicates whether rotational values are in degrees (yes) or radians (no).

endheader
time	pelvis_tilt	pelvis_list	pelvis_rotation	pelvis_tx	pelvis_ty	pelvis_tz	hip_flexion_r	hip_adduction_r	hip_rotation_r	knee_angle_r	knee_angle_r_beta	ankle_angle_r	subtalar_angle_r	mtp_angle_r	hip_flexion_l	hip_adduction_l	hip_rotation_l	knee_angle_l	knee_angle_l_beta	ankle_angle_l	subtalar_angle_l	mtp_angle_l	lumbar_extension	lumbar_bending	lumbar_rotation	arm_flex_r	arm_add_r	arm_rot_r	elbow_flex_r	pro_sup_r	arm_flex_l	arm_add_l	arm_rot_l	elbow_flex_l	pro_sup_l
      0.00000000	     -4.23730393	      0.97297630	      0.95079814	     -0.08008203	      0.88426234	     -0.02748467	      3.64929821	     -3.48582122	     -6.77310607	      5.35923855	      0.09353636	      4.46547969	      1.73183832	     -8.13995870	      3.73096542	     -8.92725930	     -6.15203328	      7.15018843	      0.12479433	      4.92635042	      5.33787282	     -8.13995870	     -6.42097442	      1.10295621	      0.17651396	     38.15265964	     11.10305340	     37.12435704	    128.75979955	    104.62380269	     46.87204819	     12.74761402	     54.16338123	    131.51495738	    102.96178790
      0.01666670	     -6.65021043	      0.62315968	      0.46021583	     -0.07995788	      0.88314875	     -0.02227936	      6.07536004	     -2.78130420	     -6.45060387	      5.07453275	      0.08856730	      5.55437943	      3.06437819	     -7.97160409	      6.12851800	     -9.19917212	     -5.35584009	      6.48206124	      0.11313331	      4.19218622	      7.27477191	     -7.97160409	     -3.28500921	      1.22491104	      0.48678901	     39.75821348	     11.31031791	     36.05181397	    128.57049029	    100.99298898	     49.79251834	     13.40587766	     53.69018708	    131.57907405	    100.00291681
      0.03333330	     -7.50713622	      0.78835520	      0.79162873	     -0.08130917	      0.88298938	     -0.01825538	      6.31291819	     -2.48196387	     -7.20699569	      3.67041139	      0.06406076	      5.11030636	      3.14109778	     -7.93932741	      7.52723383	     -9.35353000	     -5.17347695	      6.37612277	      0.11128434	      2.52742056	      7.06421883	     -7.93932741	     -2.31948423	      0.79614632	      0.44791334	     39.35973069	     12.91325257	     44.28263375	    133.56906299	    101.00483004	     50.53816102	     13.85788136	     55.22885143	    132.52839183	     99.47736453
      0.05000000	     -7.55918232	      1.05714561	      0.88635477	     -0.08119635	      0.88463653	     -0.01371734	      5.83931976	     -2.38512464	     -7.49111411	      2.82202240	      0.04925358	      5.11179720	      4.20111811	     -7.82592633	      7.45670392	     -9.37414576	     -5.01711456	      5.82086511	      0.10159326	      1.23550310	      6.50983805	     -7.82592633	     -2.24693053	      0.25715486	      0.53518944	     38.92941145	     13.47573951	     48.93962368	    134.18838056	    102.97142957	     51.53800472	     14.01386930	     55.66804653	    132.35988944	     98.22416447
      0.06666670	     -7.76134058	      1.26986162	      1.15620297	     -0.08308031	      0.88431835	     -0.00995398	      5.68764540	     -2.24078908	     -7.71373811	      2.11088160	      0.03684183	      5.11245869	      4.46401718	     -7.71726199	      7.74433639	     -9.33138299	     -4.89573203	      5.31751890	      0.09280821	      0.49438756	      5.90051536	     -7.71726199	     -2.38322183	      0.00379386	      1.08598780	     38.54056803	     13.33792437	     53.06953406	    134.67319664	    102.90293709	     51.68994415	     14.31432845	     57.40894108	    132.28536691	     95.66611497
      0.08333330	     -7.84060540	      1.48636415	      1.52810940	     -0.08255356	      0.88343194	     -0.00723625	      5.43432132	     -2.19765984	     -7.83809587	      1.61619544	      0.02820793	      5.30605906	      4.62136766	     -7.61185851	      7.95354271	     -9.19670676	     -4.76299154	      5.20673067	      0.09087459	      0.13119510	      5.43278262	     -7.61185851	     -2.34681850	     -0.26537633	      1.36895892	     37.84526119	     13.05912675	     56.28690008	    134.48975386	    101.79216304	     51.67553415	     14.69033454	     59.12396223	    132.00290155	     92.68350578
      0.10000000	     -7.89399861	      1.68512377	      1.81638426	     -0.08216709	      0.88318259	     -0.00436556	      5.26297235	     -2.20852987	     -7.86514341	      1.29791984	      0.02265297	      5.76684655	      4.71129085	     -7.54702854	      8.08318427	     -9.01681228	     -4.83517698	      5.06523471	      0.08840502	      0.36440075	      5.37279466	     -7.54702854	     -2.33535385	     -0.46485686	      1.60084137	     37.87068452	     12.71161846	     57.92779469	    134.18551230	    100.70912790	     51.33098513	     15.20791355	     60.53881162	    131.94173417	     90.19157065
      0.11666670	     -7.92853734	      1.80733281	      1.99888067	     -0.07933682	      0.87997238	     -0.00321795	      5.05717845	     -2.20300961	     -7.71915798	      1.11161169	      0.01940128	      6.01272916	      4.39712441	     -7.52192790	      8.21851732	     -8.78148998	     -4.42228462	      5.24611326	      0.09156195	      0.85804379	      4.55670004	     -7.52192790	     -2.13041566	     -0.55761391	      1.55091632	     37.73338443	     12.34722135	     59.00436834	    133.18618594	     90.16330039	     50.75495098	     15.38749042	     61.87443200	    132.01463889	     80.33155862
      0.13333330	     -8.06990995	      1.98214444	      1.96132794	     -0.08195114	      0.88173504	     -0.00084245	      5.17001233	     -2.28641301	     -7.73469316	      1.06507452	      0.01858906	      6.27095411	      4.62080942	     -7.50640238	      8.54064717	     -8.46943114	     -4.55225167	      5.64261156	      0.09848215	      1.54310886	      5.04554057	     -7.50640238	     -1.91137748	     -0.68360884	      1.66747252	     37.88632209	     12.31913702	     59.67867194	    132.69628422	     98.09438639	     49.92351192	     15.66646447	     62.13791949	    131.92877414	     85.79359740
      0.15000000	     -8.03970741	      2.12213303	      1.97642505	     -0.08198787	      0.88405830	      0.00072968	      5.09698391	     -2.34103916	     -7.51140568	      1.00537757	      0.01754715	      6.22872683	      4.59111132	     -7.50167670	      8.69319160	     -8.05640404	     -4.15394872	      6.01292828	      0.10494540	      2.02839098	      5.17737711	     -7.50167670	     -1.89532946	     -0.72997373	      1.67864452	     38.48029026	     12.15915795	     60.10220607	    131.38351226	     96.88788037	     49.42491051	     15.61567812	     62.39254503	    132.03921908	     83.51899857
      0.16666670	     -8.04520638	      2.23807194	      1.91022194	     -0.08363316	      0.88304018	      0.00170573	      5.17410152	     -2.36692386	     -7.28548994	      0.96456705	      0.01683487	      5.85805526	      4.30337308	     -7.50040962	      8.72322420	     -7.52991144	     -3.72384067	      6.27464050	      0.10951314	      2.45998148	      5.62764925	     -7.50040962	     -1.79911283	     -0.76176438	      1.69771282	     39.06995200	     12.05024573	     60.13897219	    130.47868036	     96.28484022	     49.05024259	     15.57936193	     62.36960107	    132.14175044	     82.28491672
      0.18333330	     -8.05618225	      2.40581530	      1.94176030	     -0.08389007	      0.88593226	      0.00279838	      5.25807986	     -2.46649820	     -7.39726176	      0.92731064	      0.01618462	      5.43221461	      4.46046131	     -7.50011675	      8.73448359	     -6.84002819	     -3.11787292	      6.54095411	      0.11416119	      2.54017099	      6.03627168	     -7.50011675	     -1.80338395	     -0.83722395	      1.60428696	     39.11408119	     12.07983741	     60.21128700	    129.59797178	     95.34246006	     48.62165329	     15.40609772	     62.37170813	    132.54300387	     80.46282409
      0.20000000	     -8.06967094	      2.58277164	      2.03748731	     -0.08236212	      0.88637570	      0.00227533	      5.29667912	     -2.59702002	     -7.19507542	      0.86083180	      0.01502435	      4.70947392	      4.09319259	     -7.50004486	      8.72648040	     -6.05162913	     -2.36452198	      6.72509336	      0.11737502	      2.35909014	      6.27715108	     -7.50004486	     -1.71473441	     -0.96253075	      1.71542181	     38.97879309	     12.00323847	     60.05410117	    129.10191437	     95.72480432	     47.95656156	     15.38905384	     62.15989928	    132.59915527	     80.05122019
